<svg xmlns="http://www.w3.org/2000/svg" viewBox="0 0 24 24">
  <defs><linearGradient id="g" x1="0" y1="0" x2="1" y2="1">
    <stop offset="0" stop-color="#fb7185"/><stop offset="1" stop-color="#e11d48"/>
  </linearGradient></defs>
  <rect width="24" height="24" rx="5.5" fill="url(#g)"/>
  <g fill="#fff">
    <rect x="4.4" y="4.4" width="6.6" height="6.6" rx="1.8"/>
    <rect x="13" y="4.4" width="6.6" height="6.6" rx="1.8"/>
    <rect x="4.4" y="13" width="6.6" height="6.6" rx="1.8"/>
    <path d="M16.3 19.9c-1.8-1.4-3.3-2.7-3.3-4.4 0-1.1.9-2 2-2 .5 0 1 .3 1.3.7.3-.4.8-.7 1.3-.7 1.1 0 2 .9 2 2 0 1.7-1.5 3-3.3 4.4z"/>
  </g>
</svg>
